# xmcd CD database file
#
# Track frame offsets:
#	150
#	28676
#	53659
#	85299
#	113776
#	138464
#	170184
#	195995
#	219433
#
# Disc length: 3829 seconds
#
# Revision: 0
# Processed by: cddbd v1.5.2PL0 Copyright (c) Steve Scherf et al.
# Submitted via: CDex 1.51
#
DISCID=7a0ef309
DTITLE=Superfro - Sauron kann nicht tanzen
DYEAR=2008
DGENRE=Jazz
TTITLE0=Not my wife's song
TTITLE1=Afromeleon
TTITLE2=Impressions
TTITLE3=The waltz
TTITLE4=Sauron kann nicht tanzen
TTITLE5=Dodge Padge
TTITLE6=Hard week
TTITLE7=Footprints
TTITLE8=Impressions-Remix
EXTD=YEAR: 2008
EXTT0=
EXTT1=
EXTT2=
EXTT3=
EXTT4=
EXTT5=
EXTT6=
EXTT7=
EXTT8=
PLAYORDER=
